<svg xmlns="http://www.w3.org/2000/svg" viewBox="0 0 1000 650" fill="none">
  <g fill="#17150f">
    <circle cx="120" cy="120" r="2"/>
    <circle cx="150" cy="165" r="1.5"/>
    <circle cx="185" cy="110" r="2"/>
    <circle cx="220" cy="195" r="1.5"/>
    <circle cx="250" cy="145" r="2"/>
    <circle cx="280" cy="220" r="1.5"/>
    <circle cx="305" cy="175" r="2"/>
    <circle cx="340" cy="240" r="1.5"/>
    <circle cx="370" cy="195" r="2"/>
    <circle cx="405" cy="255" r="1.5"/>
    <circle cx="430" cy="210" r="2"/>
    <circle cx="460" cy="270" r="1.5"/>

    <circle cx="140" cy="270" r="1.5"/>
    <circle cx="180" cy="310" r="2"/>
    <circle cx="215" cy="250" r="1.5"/>
    <circle cx="245" cy="340" r="2"/>
    <circle cx="285" cy="290" r="1.5"/>
    <circle cx="315" cy="365" r="2"/>
    <circle cx="350" cy="325" r="1.5"/>
    <circle cx="390" cy="390" r="2"/>
    <circle cx="425" cy="350" r="1.5"/>

    <circle cx="170" cy="430" r="2"/>
    <circle cx="215" cy="395" r="1.5"/>
    <circle cx="250" cy="455" r="2"/>
    <circle cx="290" cy="420" r="1.5"/>
    <circle cx="330" cy="485" r="2"/>
    <circle cx="370" cy="450" r="1.5"/>
  </g>

  <g stroke="#17150f" stroke-width="1.2">
    <path opacity=".22" d="M515 70V580"/>
    <path d="M555 535L880 115"/>
    <path opacity=".35" d="M555 535L880 535M555 535V115"/>
  </g>

  <g fill="#17150f">
    <circle cx="555" cy="535" r="4"/>
    <circle cx="610" cy="464" r="3"/>
    <circle cx="665" cy="393" r="3"/>
    <circle cx="720" cy="322" r="3"/>
    <circle cx="775" cy="251" r="3"/>
    <circle cx="830" cy="180" r="3"/>
    <circle cx="880" cy="115" r="4"/>
  </g>

  <path class="draw-path" d="M120 510
           C260 500 360 470 450 410
           C540 350 625 285 710 220
           C775 170 830 130 880 115"
        stroke="#17150f" stroke-width="2"
        stroke-dasharray="1400" stroke-dashoffset="1400"/>

  <g stroke="#17150f" opacity=".18">
    <path d="M80 90H470M80 560H470"/>
  </g>

  <g stroke="#17150f" stroke-width="1">
    <path d="M250 400H295" opacity=".55"/>
    <path d="M700 250H745" opacity=".55"/>
  </g>
  <g fill="#17150f" font-family="monospace" font-size="16" letter-spacing=".05em">
    <text x="300" y="404">NOISE</text>
    <text x="750" y="254">GENERALIZES →</text>
  </g>
</svg>
