<svg xmlns="http://www.w3.org/2000/svg" viewBox="0 0 1000 650" fill="none">
  <g stroke="#17150f" stroke-width="1.4">
    <path opacity=".18" d="M120 80H880M120 185H880M120 290H880M120 395H880M120 500H880M120 570H880"/>
    <path opacity=".18" d="M180 55V595M340 55V595M500 55V595M660 55V595M820 55V595"/>

    <circle cx="500" cy="325" r="65"/>
    <circle cx="500" cy="325" r="130" opacity=".65"/>
    <circle cx="500" cy="325" r="195" stroke-dasharray="6 7" opacity=".5"/>
    <circle cx="500" cy="325" r="260" stroke-dasharray="2 8" opacity=".35"/>

    <path d="M500 65V585M140 325H860" opacity=".35"/>

    <path class="draw-path" d="M500 325
             C555 300 610 280 650 245
             C690 210 720 165 748 145
             C780 122 815 115 850 82
             C870 63 882 45 890 25"
          stroke-dasharray="900" stroke-dashoffset="900"/>
    <path d="M890 25l-4 14M890 25l-14 4"/>
  </g>

  <g fill="#17150f">
    <circle cx="500" cy="325" r="5"/>
    <rect x="886" y="21" width="9" height="9"/>
  </g>

  <g stroke="#17150f" stroke-width="1">
    <circle cx="500" cy="195" r="4" fill="#faf9f7"/>
    <circle cx="630" cy="325" r="4" fill="#faf9f7"/>
    <circle cx="500" cy="455" r="4" fill="#faf9f7"/>
  </g>

  <g stroke="#17150f" stroke-width="1">
    <path d="M598 325H645" opacity=".55"/>
  </g>
  <g fill="#17150f" font-family="monospace" font-size="16" letter-spacing=".05em">
    <text x="650" y="329">BOUNDED</text>
    <text x="820" y="55">ESCAPES →</text>
  </g>
</svg>
